# xmcd
#
# Track frame offsets: 
#        150
#        16538
#        30186
#        43687
#        59739
#        79503
#        94988
#        119006
#        140285
#        160567
#        178560
#        195213
#        203011
#        227017
#        245053
#        257351
#        281087
#
# Disc length: 4296 seconds
#
# Revision: 0
# Processed by: cddbd v1.5.2PL0 Copyright (c) Steve Scherf et al.
# Submitted via: ExactAudioCopy v1.3
#
DISCID=d510c611
DTITLE=B. J. Thomas - Live
DYEAR=2003
DGENRE=Country
TTITLE0=Two Car Garage
TTITLE1=New Looks From An Old Lover
TTITLE2=No Love At All
TTITLE3=The Eyes Of A New York Woman
TTITLE4=Whatever Happened To Old Fashioned Love
TTITLE5=Most Of All
TTITLE6=Rock And Roll Lullaby
TTITLE7=I Just Can't Help Believing
TTITLE8=Hooked On A Feeling
TTITLE9=Mama
TTITLE10=I'm So Lonesome I Could Cry
TTITLE11=Band Introduction
TTITLE12=Don't Worry Baby
TTITLE13=Another Somebody Done Somebody Wrong Song
TTITLE14=Raindrops Keep Falling On My Head
TTITLE15=As Long As We've Got Each Other (Theme From 'Growing Pains')
TTITLE16=Back Against The Wall
EXTD=
EXTT0=
EXTT1=
EXTT2=
EXTT3=
EXTT4=
EXTT5=
EXTT6=
EXTT7=
EXTT8=
EXTT9=
EXTT10=
EXTT11=
EXTT12=
EXTT13=
EXTT14=
EXTT15=
EXTT16=
PLAYORDER=
